<svg xmlns="http://www.w3.org/2000/svg" viewBox="0 0 69.33 12.9"><defs><style>.cls-1{fill:#fff;}</style></defs><g id="Layer_2" data-name="Layer 2"><g id="Layer_1-2" data-name="Layer 1"><path class="cls-1" d="M0,0H1.3V9.94H0ZM.62,7.36,3.44,2.84H4.8L.68,9ZM2,6.24l.77-1L5.08,9.94H3.66Z"/><path class="cls-1" d="M6,9.55a2.22,2.22,0,0,1-.44-1.5,2.56,2.56,0,0,1,.55-1.78,2.12,2.12,0,0,1,1.65-.6h.91l.09,1.17h-1a.86.86,0,0,0-.71.3,1.45,1.45,0,0,0-.24.91A.82.82,0,0,0,7,8.67a.83.83,0,0,0,.62.21.92.92,0,0,0,.73-.27,1.19,1.19,0,0,0,.24-.81l.14.66a2.26,2.26,0,0,1-.17.88,1.18,1.18,0,0,1-.48.53,1.68,1.68,0,0,1-.79.17A1.65,1.65,0,0,1,6,9.55Zm2.61-4.8a.94.94,0,0,0-.23-.67.9.9,0,0,0-.64-.23.75.75,0,0,0-.57.23,1,1,0,0,0-.2.67H5.67a2,2,0,0,1,.54-1.5,2.1,2.1,0,0,1,1.52-.53A2.52,2.52,0,0,1,8.87,3a1.63,1.63,0,0,1,.71.69,2.24,2.24,0,0,1,.25,1.1V9.94H8.57Z"/><path class="cls-1" d="M10.79,2.84h3.27V4.07H10.79Zm.69-1a2,2,0,0,1,.45-1.4A1.69,1.69,0,0,1,13.25,0h.81V1.23H13.3a.44.44,0,0,0-.38.18.78.78,0,0,0-.14.48v8h-1.3Z"/><path class="cls-1" d="M14.88,0h1.3V9.94h-1.3Zm.62,7.36,2.82-4.52h1.36L15.56,9Zm1.36-1.12.77-1L20,9.94H18.54Z"/><path class="cls-1" d="M20.84,9.55a2.22,2.22,0,0,1-.43-1.5A2.56,2.56,0,0,1,21,6.27a2.14,2.14,0,0,1,1.65-.6h.91l.09,1.17h-1a.87.87,0,0,0-.72.3,1.45,1.45,0,0,0-.24.91.82.82,0,0,0,.21.62.85.85,0,0,0,.62.21.92.92,0,0,0,.73-.27,1.19,1.19,0,0,0,.24-.81l.14.66a2.09,2.09,0,0,1-.17.88,1.08,1.08,0,0,1-.48.53,2,2,0,0,1-2.1-.32Zm2.61-4.8a.94.94,0,0,0-.23-.67.88.88,0,0,0-.64-.23.71.71,0,0,0-.56.23,1,1,0,0,0-.21.67H20.55a2,2,0,0,1,.54-1.5,2.1,2.1,0,0,1,1.52-.53A2.49,2.49,0,0,1,23.75,3a1.71,1.71,0,0,1,.72.69,2.35,2.35,0,0,1,.24,1.1V9.94H23.45Z"/><path class="cls-1" d="M26,8.57h1.37V9.94H26Z"/><path class="cls-1" d="M28.92,9.55a2.17,2.17,0,0,1-.44-1.5A2.51,2.51,0,0,1,29,6.27a2.1,2.1,0,0,1,1.64-.6h.91l.1,1.17h-1a.87.87,0,0,0-.72.3,1.45,1.45,0,0,0-.24.91.82.82,0,0,0,.21.62.86.86,0,0,0,.63.21.91.91,0,0,0,.72-.27,1.19,1.19,0,0,0,.24-.81l.14.66a2.27,2.27,0,0,1-.16.88,1.18,1.18,0,0,1-.48.53,1.71,1.71,0,0,1-.79.17A1.65,1.65,0,0,1,28.92,9.55Zm2.6-4.8a.94.94,0,0,0-.23-.67.86.86,0,0,0-.64-.23.71.71,0,0,0-.56.23,1,1,0,0,0-.2.67H28.62a2,2,0,0,1,.54-1.5,2.11,2.11,0,0,1,1.53-.53A2.45,2.45,0,0,1,31.82,3a1.6,1.6,0,0,1,.72.69,2.35,2.35,0,0,1,.25,1.1V9.94H31.52Z"/><path class="cls-1" d="M35.14,9.8a1.66,1.66,0,0,1-.73-.73,2.34,2.34,0,0,1-.26-1.14v-3a2.59,2.59,0,0,1,.26-1.2A1.68,1.68,0,0,1,35.14,3a2.45,2.45,0,0,1,1.16-.26A2.52,2.52,0,0,1,37.47,3a1.75,1.75,0,0,1,.74.76A2.81,2.81,0,0,1,38.46,5v.23H37.17V5A1.14,1.14,0,0,0,37,4.2a.77.77,0,0,0-.63-.27.82.82,0,0,0-.64.26,1.14,1.14,0,0,0-.23.75v3a.94.94,0,0,0,.23.67.88.88,0,0,0,.64.23A.82.82,0,0,0,37,8.59a1,1,0,0,0,.23-.69V7.68h1.29V7.9a2.45,2.45,0,0,1-.25,1.16,1.71,1.71,0,0,1-.75.73A2.47,2.47,0,0,1,36.3,10,2.55,2.55,0,0,1,35.14,9.8Z"/><path class="cls-1" d="M39.9,9.55a2.22,2.22,0,0,1-.44-1.5A2.56,2.56,0,0,1,40,6.27a2.12,2.12,0,0,1,1.65-.6h.91l.09,1.17h-1a.87.87,0,0,0-.72.3,1.45,1.45,0,0,0-.24.91.82.82,0,0,0,.21.62.83.83,0,0,0,.62.21.92.92,0,0,0,.73-.27,1.19,1.19,0,0,0,.24-.81l.14.66a2.09,2.09,0,0,1-.17.88,1.08,1.08,0,0,1-.48.53,1.68,1.68,0,0,1-.79.17A1.65,1.65,0,0,1,39.9,9.55Zm2.61-4.8a.94.94,0,0,0-.23-.67.9.9,0,0,0-.64-.23.75.75,0,0,0-.57.23,1,1,0,0,0-.2.67H39.61a2,2,0,0,1,.54-1.5,2.1,2.1,0,0,1,1.52-.53A2.52,2.52,0,0,1,42.81,3a1.63,1.63,0,0,1,.71.69,2.24,2.24,0,0,1,.25,1.1V9.94H42.51Z"/><path class="cls-1" d="M45.86,9.81a1.5,1.5,0,0,1-.54-.72,3.27,3.27,0,0,1-.18-1.15v-3a3.47,3.47,0,0,1,.18-1.19A1.59,1.59,0,0,1,45.86,3a1.4,1.4,0,0,1,.84-.26,1.36,1.36,0,0,1,.89.33,2.4,2.4,0,0,1,.66.92L48.1,5A1.57,1.57,0,0,0,48,4.42a.91.91,0,0,0-.29-.37.79.79,0,0,0-.45-.12.73.73,0,0,0-.61.28,1.23,1.23,0,0,0-.22.78v2.9a1,1,0,0,0,.22.71.76.76,0,0,0,.61.25.79.79,0,0,0,.45-.12A.78.78,0,0,0,48,8.38a1.47,1.47,0,0,0,.09-.55l.1,1a2,2,0,0,1-.58.91,1.43,1.43,0,0,1-.92.32A1.39,1.39,0,0,1,45.86,9.81ZM48.1,0h1.3V9.94H48.1Z"/><path class="cls-1" d="M51.77,9.77A1.82,1.82,0,0,1,51,9a2.87,2.87,0,0,1-.26-1.27V5.21A3.29,3.29,0,0,1,51,3.86,2,2,0,0,1,51.74,3a2.17,2.17,0,0,1,1.14-.29A2.26,2.26,0,0,1,54,3a1.7,1.7,0,0,1,.73.79A2.77,2.77,0,0,1,55,5V6.9H51.68V5.82h2.08V5.05a1.39,1.39,0,0,0-.23-.85.77.77,0,0,0-.65-.3.72.72,0,0,0-.64.32,1.57,1.57,0,0,0-.22.91V7.72a1.22,1.22,0,0,0,.23.81.83.83,0,0,0,.68.3.89.89,0,0,0,.63-.22A.84.84,0,0,0,53.78,8V8H55V8a2,2,0,0,1-.54,1.51,2.16,2.16,0,0,1-1.55.53A2.34,2.34,0,0,1,51.77,9.77Z"/><path class="cls-1" d="M56.39,2.84h1.3v7.1h-1.3Zm3,2.18a1.39,1.39,0,0,0-.2-.82.88.88,0,0,0-1.27,0,1.32,1.32,0,0,0-.22.84l-.14-1a2.07,2.07,0,0,1,.65-1,1.55,1.55,0,0,1,1-.33,1.4,1.4,0,0,1,.81.22,1.29,1.29,0,0,1,.51.65,2.66,2.66,0,0,1,.18,1V9.94h-1.3Zm3,0a1.32,1.32,0,0,0-.21-.82.84.84,0,0,0-.66-.26.71.71,0,0,0-.61.27,1.42,1.42,0,0,0-.2.85l-.19-1a2.1,2.1,0,0,1,.65-1,1.49,1.49,0,0,1,1-.34,1.54,1.54,0,0,1,.85.22,1.41,1.41,0,0,1,.52.65,2.69,2.69,0,0,1,.18,1V9.94h-1.3Z"/><path class="cls-1" d="M64.48,2.84H65.8L67.32,9l-.66,1.52Zm4.85,0L67.2,11.6a1.87,1.87,0,0,1-.37.73,1.59,1.59,0,0,1-.67.43,3.26,3.26,0,0,1-1,.14H65V11.67h.19a1.26,1.26,0,0,0,.75-.2,1.05,1.05,0,0,0,.35-.62l1.76-8Z"/></g></g></svg>