<?xml version="1.0" encoding="utf-8"?>
<!-- Generator: Adobe Illustrator 15.1.0, SVG Export Plug-In . SVG Version: 6.00 Build 0)  -->
<!DOCTYPE svg PUBLIC "-//W3C//DTD SVG 1.1//EN" "http://www.w3.org/Graphics/SVG/1.1/DTD/svg11.dtd">
<svg version="1.1" id="Layer_1" xmlns="http://www.w3.org/2000/svg" xmlns:xlink="http://www.w3.org/1999/xlink" x="0px" y="0px"
	 width="51px" height="51px" viewBox="0 0 51 51" enable-background="new 0 0 51 51" xml:space="preserve">
<path fill="#FFFFFF" d="M45.872,16.408C43.59,7.281,35.323,0.5,25.5,0.5S7.411,7.281,5.129,16.408
	c-2.875,3.594-4.601,8.145-4.601,13.094c0,11.578,9.42,20.998,20.999,20.998c1.358,0,2.686-0.136,3.973-0.383
	c1.287,0.247,2.615,0.383,3.973,0.383c11.579,0,20.999-9.42,20.999-20.998C50.472,24.553,48.747,20.002,45.872,16.408z
	 M45.529,21.497c0,3.994-1.179,7.716-3.202,10.843c0.127-0.929,0.198-1.875,0.198-2.838c0-9.317-6.104-17.233-14.52-19.97
	c0.484-0.036,0.974-0.061,1.467-0.061c6.244,0,11.827,2.873,15.504,7.364C45.335,18.333,45.529,19.892,45.529,21.497z
	 M31.602,22.475c-0.312-1.014-0.753-1.889-1.324-2.629c-0.572-0.741-1.262-1.319-2.064-1.735c-0.807-0.414-1.7-0.623-2.688-0.623
	c-1.091,0-2.046,0.201-2.863,0.604s-1.514,0.961-2.084,1.675c-0.573,0.717-1.002,1.579-1.287,2.592
	c-0.286,1.013-0.428,2.144-0.428,3.39c0,1.324,0.148,2.525,0.447,3.604c0.298,1.076,0.734,2.001,1.306,2.766
	c0.572,0.767,1.272,1.357,2.105,1.772c0.829,0.416,1.765,0.623,2.804,0.623c0.71,0,1.355-0.09,1.947-0.255
	c0.793-0.22,1.487-0.58,2.074-1.094c-1.347-2.28-2.085-5.587-5.187-6.01c-0.804-0.11-1.504-0.091-2.101,0.058
	c-0.073-0.269,0.116-1.271,0.116-1.271s1.422-0.466,2.366-0.546c2.902-0.248,4.983,1.526,6.274,3.793
	c0.145,0.254,0.299,0.55,0.453,0.854c0.011,0.022,0.021,0.043,0.032,0.063c0.167,0.333,0.338,0.673,0.504,0.995
	c0.011,0.023,0.022,0.047,0.035,0.07c0.108,0.208,0.213,0.408,0.312,0.587c0.301,0.53,0.646,1.114,1.136,1.583
	c0.043,0.038,0.075,0.082,0.118,0.12c0.604,0.521,1.253,0.83,1.953,0.927c0.694,0.097,1.328-0.202,1.884-0.348
	c0.207,0.257,0.979,2.161,1.061,2.429c-2.364,0.863-5.122,0.363-7.069-1.21c-0.527,0.352-1.096,0.648-1.704,0.89
	c-0.189,0.075-0.391,0.134-0.588,0.196c-1.095,0.355-2.296,0.544-3.618,0.544c-3.351,0-5.91-0.94-7.676-2.825
	c-1.766-1.883-2.649-4.655-2.649-8.317c0-1.637,0.261-3.111,0.778-4.423c0.52-1.311,1.242-2.421,2.163-3.331
	c0.922-0.909,2.013-1.61,3.274-2.104c1.259-0.493,2.629-0.74,4.109-0.74c1.532,0,2.921,0.233,4.167,0.7
	c1.247,0.468,2.317,1.15,3.214,2.047c0.897,0.896,1.591,2,2.084,3.311c0.493,1.313,0.741,2.825,0.741,4.54
	c0,1.767-0.241,3.345-0.721,4.732c-0.083,0.241-0.18,0.466-0.276,0.692c-0.119-0.185-0.234-0.386-0.334-0.565
	c-0.181-0.318-0.395-0.745-0.601-1.157c-0.244-0.485-0.494-0.985-0.743-1.424c-0.311-0.543-0.648-1.041-1.006-1.5
	c0.009-0.256,0.02-0.512,0.02-0.778C32.07,24.578,31.912,23.487,31.602,22.475z M25.5,1.468c8.653,0,16.04,5.516,18.835,13.215
	c-3.804-3.814-9.062-6.179-14.862-6.179c-1.357,0-2.686,0.135-3.973,0.382c-1.287-0.247-2.614-0.382-3.973-0.382
	c-5.801,0-11.058,2.364-14.862,6.179C9.46,6.983,16.848,1.468,25.5,1.468z M6.023,16.836c3.677-4.491,9.26-7.364,15.504-7.364
	c0.492,0,0.981,0.024,1.467,0.061c-8.417,2.736-14.519,10.652-14.519,19.97c0,0.963,0.07,1.909,0.197,2.838
	c-2.023-3.127-3.202-6.849-3.202-10.843C5.471,19.892,5.666,18.333,6.023,16.836z M21.527,49.532
	c-11.045,0-20.031-8.987-20.031-20.03c0-3.994,1.181-7.715,3.203-10.844c-0.126,0.93-0.196,1.876-0.196,2.839
	c0,4.949,1.725,9.501,4.599,13.093c1.757,7.027,7.061,12.66,13.893,14.883C22.509,49.507,22.02,49.532,21.527,49.532z
	 M10.638,36.316c3.805,3.814,9.062,6.178,14.862,6.178c5.801,0,11.059-2.363,14.861-6.178c-2.355,6.489-7.973,11.426-14.861,12.817
	C18.611,47.742,12.994,42.806,10.638,36.316z M29.473,49.532c-0.493,0-0.982-0.025-1.467-0.06
	c6.831-2.223,12.137-7.855,13.894-14.883c2.873-3.592,4.598-8.144,4.598-13.093c0-0.963-0.07-1.909-0.196-2.839
	c2.023,3.129,3.202,6.85,3.202,10.844C49.503,40.545,40.518,49.532,29.473,49.532z"/>
</svg>
