<?xml version="1.0" encoding="utf-8"?>
<!-- Generator: Adobe Illustrator 25.0.0, SVG Export Plug-In . SVG Version: 6.00 Build 0)  -->
<svg version="1.1" id="Layer_1" xmlns="http://www.w3.org/2000/svg" xmlns:xlink="http://www.w3.org/1999/xlink" x="0px" y="0px"
	 viewBox="0 0 69.4 12.9" style="enable-background:new 0 0 69.4 12.9;" xml:space="preserve">
<style type="text/css">
	.st0{fill:#FFFFFF;}
</style>
<g id="Layer_2_1_">
	<g id="Layer_1-2">
		<path class="st0" d="M0,0h1.5v9.9H0V0z M0.9,7.1l2.5-4.3h1.5l-4,6.2L0.9,7.1z M2,6.3l0.9-1l2.2,4.6H3.5L2,6.3z"/>
		<path class="st0" d="M6,9.5C5.7,9.1,5.5,8.6,5.5,8c0-0.6,0.2-1.2,0.6-1.7c0.5-0.4,1.1-0.6,1.7-0.6h0.7l0.1,1.2H7.8
			C7.6,6.9,7.3,7,7.2,7.2C7,7.4,7,7.7,7,8c0,0.2,0,0.4,0.2,0.6c0.1,0.1,0.3,0.2,0.5,0.2c0.2,0,0.5-0.1,0.6-0.2
			c0.2-0.2,0.2-0.4,0.2-0.7l0.1,0.6c0,0.3-0.1,0.6-0.2,0.9C8.4,9.5,8.2,9.7,8,9.9C7.8,10,7.5,10,7.2,10C6.8,10.1,6.3,9.9,6,9.5z
			 M8.5,4.8c0-0.2-0.1-0.4-0.2-0.6C8.1,4.1,7.9,4,7.8,4.1C7.6,4,7.4,4.1,7.3,4.2C7.2,4.4,7.1,4.6,7.1,4.8H5.7c0-0.6,0.2-1.1,0.6-1.5
			c0.4-0.4,1-0.6,1.6-0.5c0.4,0,0.8,0.1,1.2,0.3c0.3,0.2,0.6,0.4,0.7,0.7C9.8,4,9.9,4.4,9.9,4.8v5.1H8.5V4.8z"/>
		<path class="st0" d="M10.8,2.8h3.3v1.3h-3.3V2.8z M11.5,1.8c0-0.5,0.1-1,0.4-1.4C12.3,0.1,12.8,0,13.3,0h0.9v1.4h-0.7
			c-0.1,0-0.3,0-0.4,0.2C13,1.7,13,1.9,13,2v8h-1.5V1.8z"/>
		<path class="st0" d="M14.9,0h1.5v9.9h-1.5V0z M15.7,7.1l2.5-4.3h1.5l-4,6.2L15.7,7.1z M16.9,6.3l0.9-1L20,9.9h-1.6L16.9,6.3z"/>
		<path class="st0" d="M20.8,9.5c-0.3-0.4-0.5-1-0.4-1.5c0-0.6,0.2-1.3,0.6-1.7c0.5-0.4,1.1-0.6,1.7-0.6h0.7l0.1,1.2h-0.8
			c-0.3,0-0.5,0.1-0.7,0.3c-0.2,0.2-0.2,0.5-0.2,0.8c0,0.2,0,0.4,0.2,0.6c0.1,0.1,0.3,0.2,0.5,0.2c0.2,0,0.5-0.1,0.6-0.2
			c0.2-0.2,0.2-0.4,0.2-0.7l0.1,0.6c0,0.3-0.1,0.6-0.2,0.9c-0.1,0.2-0.3,0.4-0.5,0.5C22.6,10,22.4,10,22.1,10
			C21.6,10.1,21.2,9.9,20.8,9.5z M23.4,4.8c0-0.2-0.1-0.4-0.2-0.6C23,4.1,22.8,4,22.6,4.1c-0.2,0-0.4,0.1-0.5,0.2
			C22,4.4,22,4.6,22,4.8h-1.5c0-0.6,0.2-1.1,0.6-1.5c0.4-0.4,1-0.6,1.5-0.5c0.4,0,0.8,0.1,1.2,0.3c0.3,0.2,0.6,0.4,0.7,0.7
			c0.2,0.4,0.3,0.7,0.2,1.1v5.1h-1.4V4.8z"/>
		<path class="st0" d="M25.9,8.4h1.5v1.5h-1.5V8.4z"/>
		<path class="st0" d="M28.9,9.5c-0.3-0.4-0.5-1-0.4-1.5c0-0.6,0.2-1.3,0.6-1.8c0.5-0.4,1.1-0.6,1.7-0.6h0.7l0.1,1.2h-0.8
			c-0.3,0-0.5,0.1-0.7,0.3C30,7.4,29.9,7.7,29.9,8c0,0.2,0,0.4,0.2,0.6c0.1,0.1,0.3,0.2,0.5,0.2c0.2,0,0.5-0.1,0.6-0.2
			c0.2-0.2,0.2-0.4,0.2-0.7l0.1,0.6c0,0.3-0.1,0.6-0.2,0.9c-0.1,0.2-0.3,0.4-0.5,0.5C30.7,10,30.4,10,30.2,10
			C29.7,10,29.2,9.9,28.9,9.5z M31.4,4.8c0-0.4-0.2-0.7-0.6-0.7c0,0-0.1,0-0.1,0c-0.2,0-0.3,0.1-0.5,0.2c-0.1,0.2-0.2,0.4-0.2,0.6
			h-1.4c0-0.6,0.2-1.1,0.6-1.5c0.4-0.4,1-0.6,1.5-0.5c0.4,0,0.8,0.1,1.1,0.3c0.3,0.2,0.6,0.4,0.7,0.7c0.2,0.3,0.3,0.7,0.3,1.1v5.1
			h-1.4V4.8z"/>
		<path class="st0" d="M35.2,9.8c-0.3-0.2-0.6-0.4-0.7-0.7c-0.2-0.3-0.3-0.7-0.3-1.1V4.9c0-0.4,0.1-0.8,0.3-1.2
			c0.2-0.3,0.4-0.5,0.7-0.7c0.4-0.2,0.8-0.3,1.2-0.2c0.4,0,0.8,0.1,1.2,0.2c0.3,0.2,0.6,0.4,0.8,0.7c0.2,0.4,0.3,0.8,0.3,1.2v0.4
			h-1.5V5c0-0.2,0-0.5-0.2-0.6c-0.3-0.3-0.7-0.3-1,0c-0.1,0.2-0.2,0.4-0.2,0.6v3c0,0.2,0.1,0.4,0.2,0.5c0.1,0.1,0.3,0.2,0.5,0.2
			c0.2,0,0.4-0.1,0.5-0.2c0.1-0.2,0.2-0.4,0.2-0.6V7.6h1.5V8c0,0.4-0.1,0.8-0.3,1.1c-0.2,0.3-0.4,0.6-0.8,0.7
			c-0.4,0.2-0.8,0.3-1.2,0.2C36,10.1,35.5,10,35.2,9.8z"/>
		<path class="st0" d="M39.9,9.5c-0.3-0.4-0.5-1-0.4-1.5c0-0.6,0.1-1.2,0.5-1.7c0.5-0.4,1.1-0.6,1.7-0.6h0.7l0.1,1.2h-0.8
			c-0.3,0-0.5,0.1-0.7,0.3c-0.2,0.2-0.2,0.5-0.2,0.8c0,0.2,0,0.4,0.2,0.6c0.1,0.1,0.3,0.2,0.5,0.2c0.2,0,0.5-0.1,0.6-0.2
			c0.2-0.2,0.2-0.4,0.2-0.7l0.1,0.6c0,0.3-0.1,0.6-0.2,0.9c-0.1,0.2-0.3,0.4-0.5,0.5C41.6,10,41.4,10,41.1,10
			C40.7,10.1,40.2,9.9,39.9,9.5z M42.4,4.8c0-0.2-0.1-0.4-0.2-0.6c-0.1-0.1-0.3-0.2-0.5-0.2c-0.2,0-0.4,0.1-0.5,0.2
			C41.1,4.4,41,4.6,41,4.8h-1.4c0-0.6,0.2-1.1,0.5-1.5c0.4-0.4,1-0.6,1.5-0.5c0.4,0,0.8,0.1,1.2,0.3c0.3,0.2,0.6,0.4,0.7,0.7
			c0.2,0.4,0.3,0.7,0.2,1.1v5.1h-1.4V4.8z"/>
		<path class="st0" d="M45.8,9.8c-0.2-0.2-0.4-0.4-0.5-0.7c-0.1-0.4-0.2-0.7-0.2-1.1V4.8c0-0.4,0.1-0.8,0.2-1.1
			c0.1-0.3,0.3-0.5,0.5-0.7c0.5-0.4,1.2-0.3,1.7,0.1C47.8,3.4,48,3.7,48.1,4L48,5c0-0.2,0-0.3-0.1-0.5c0-0.1-0.1-0.2-0.2-0.3
			c-0.1-0.1-0.2-0.1-0.4-0.1c-0.2,0-0.4,0.1-0.5,0.2c-0.1,0.2-0.2,0.4-0.2,0.6v2.8c0,0.2,0.1,0.4,0.2,0.6c0.1,0.1,0.3,0.2,0.5,0.2
			c0.1,0,0.3,0,0.4-0.1c0.1-0.1,0.2-0.2,0.2-0.3C48,8.2,48,8,48,7.8l0.1,1c-0.1,0.4-0.3,0.7-0.6,0.9C47,10.2,46.4,10.2,45.8,9.8
			L45.8,9.8z M48,0h1.5v9.9H48V0z"/>
		<path class="st0" d="M51.8,9.8C51.4,9.6,51.2,9.3,51,9c-0.2-0.4-0.3-0.8-0.3-1.2V5.1c0-0.4,0.1-0.9,0.3-1.3
			c0.2-0.3,0.4-0.6,0.8-0.8c0.4-0.2,0.8-0.3,1.2-0.3c0.4,0,0.8,0.1,1.2,0.3c0.3,0.2,0.6,0.4,0.7,0.8C55,4.2,55.1,4.6,55.1,5v2h-3.2
			V5.8h1.7V5c0-0.2-0.1-0.5-0.2-0.7c-0.1-0.2-0.3-0.2-0.5-0.2c-0.2,0-0.4,0.1-0.5,0.3c-0.1,0.2-0.2,0.5-0.2,0.7v2.8
			c0,0.2,0.1,0.5,0.2,0.6c0.1,0.2,0.4,0.2,0.6,0.2c0.2,0,0.4,0,0.5-0.2c0.1-0.1,0.2-0.3,0.2-0.5V7.9h1.4V8c0,0.6-0.2,1.1-0.6,1.5
			c-0.4,0.4-1,0.5-1.5,0.5C52.6,10,52.2,10,51.8,9.8z"/>
		<path class="st0" d="M56.4,2.8h1.5v7.1h-1.5V2.8z M59.3,5c0-0.2,0-0.5-0.2-0.7c-0.3-0.3-0.8-0.3-1,0c0,0,0,0,0,0
			c-0.1,0.2-0.2,0.4-0.2,0.7l-0.1-1c0.1-0.4,0.3-0.7,0.7-1c0.5-0.4,1.2-0.5,1.7-0.1c0.2,0.1,0.4,0.3,0.5,0.6c0.1,0.3,0.2,0.7,0.2,1
			v5.5h-1.5L59.3,5z M62.2,5c0-0.2,0-0.5-0.2-0.7c-0.1-0.2-0.3-0.2-0.5-0.2c-0.2,0-0.4,0.1-0.5,0.2c-0.1,0.2-0.2,0.4-0.2,0.7
			l-0.2-0.9c0.1-0.4,0.3-0.7,0.7-1c0.3-0.2,0.6-0.3,1-0.3c0.3,0,0.6,0.1,0.8,0.2c0.2,0.1,0.4,0.4,0.5,0.6c0.1,0.3,0.2,0.7,0.2,1v5.4
			h-1.5V5z"/>
		<path class="st0" d="M64.5,2.8h1.5L67.4,9l-0.7,1.6L64.5,2.8z M69.4,2.8l-2,8.8c-0.1,0.3-0.2,0.5-0.4,0.7
			c-0.2,0.2-0.4,0.3-0.7,0.4c-0.3,0.1-0.7,0.1-1,0.1H65v-1.5h0.4c0.2,0,0.4,0,0.6-0.2c0.2-0.1,0.3-0.3,0.3-0.6L68,2.8H69.4z"/>
	</g>
</g>
</svg>
