<svg xmlns="http://www.w3.org/2000/svg" viewBox="0 0 69.41 12.9"><defs><style>.cls-1{fill:#fff;}</style></defs><g id="Layer_2" data-name="Layer 2"><g id="Layer_1-2" data-name="Layer 1"><path class="cls-1" d="M0,0H1.49V9.94H0ZM.86,7.1,3.34,2.84H4.88L.93,9.08ZM2,6.3l.92-1L5.16,9.94H3.55Z"/><path class="cls-1" d="M6,9.54A2.32,2.32,0,0,1,5.52,8,2.45,2.45,0,0,1,6.1,6.27a2.25,2.25,0,0,1,1.69-.6h.73l.09,1.25H7.84a.8.8,0,0,0-.67.29A1.27,1.27,0,0,0,7,8a.76.76,0,0,0,.17.55.65.65,0,0,0,.5.18.83.83,0,0,0,.64-.24,1,1,0,0,0,.22-.68l.13.62a2.24,2.24,0,0,1-.17.87A1.07,1.07,0,0,1,8,9.86a1.47,1.47,0,0,1-.76.18A1.59,1.59,0,0,1,6,9.54ZM8.48,4.8a.78.78,0,0,0-.19-.55.73.73,0,0,0-.54-.2.58.58,0,0,0-.47.2.82.82,0,0,0-.17.55H5.67a2.11,2.11,0,0,1,.55-1.54,2.13,2.13,0,0,1,1.55-.54A2.58,2.58,0,0,1,8.93,3a1.67,1.67,0,0,1,.73.71A2.36,2.36,0,0,1,9.91,4.8V9.94H8.48Z"/><path class="cls-1" d="M10.79,2.84h3.35V4.18H10.79Zm.67-1A2,2,0,0,1,11.9.47,1.82,1.82,0,0,1,13.27,0h.87V1.41h-.71a.41.41,0,0,0-.36.16A.65.65,0,0,0,13,2v8H11.46Z"/><path class="cls-1" d="M14.88,0h1.49V9.94H14.88Zm.86,7.1,2.48-4.26h1.54l-4,6.24Zm1.15-.8.92-1L20,9.94h-1.6Z"/><path class="cls-1" d="M20.84,9.54A2.27,2.27,0,0,1,20.41,8,2.45,2.45,0,0,1,21,6.27a2.25,2.25,0,0,1,1.69-.6h.73l.1,1.25h-.78a.81.81,0,0,0-.67.29,1.27,1.27,0,0,0-.22.82.76.76,0,0,0,.17.55.65.65,0,0,0,.5.18.83.83,0,0,0,.64-.24.93.93,0,0,0,.22-.68l.13.62a2.24,2.24,0,0,1-.17.87,1.07,1.07,0,0,1-.47.53,1.47,1.47,0,0,1-.76.18A1.56,1.56,0,0,1,20.84,9.54ZM23.36,4.8a.78.78,0,0,0-.19-.55.73.73,0,0,0-.54-.2.59.59,0,0,0-.47.2A.88.88,0,0,0,22,4.8H20.55a2.08,2.08,0,0,1,.56-1.54,2.09,2.09,0,0,1,1.54-.54A2.55,2.55,0,0,1,23.81,3a1.67,1.67,0,0,1,.73.71,2.36,2.36,0,0,1,.25,1.13V9.94H23.36Z"/><path class="cls-1" d="M25.92,8.41h1.53V9.94H25.92Z"/><path class="cls-1" d="M28.91,9.54A2.27,2.27,0,0,1,28.48,8a2.41,2.41,0,0,1,.58-1.76,2.23,2.23,0,0,1,1.69-.6h.72l.1,1.25H30.8a.8.8,0,0,0-.67.29A1.27,1.27,0,0,0,29.9,8a.8.8,0,0,0,.17.55.67.67,0,0,0,.51.18.81.81,0,0,0,.63-.24.93.93,0,0,0,.22-.68l.13.62a2.08,2.08,0,0,1-.17.87,1.05,1.05,0,0,1-.46.53,1.5,1.5,0,0,1-.76.18A1.59,1.59,0,0,1,28.91,9.54ZM31.43,4.8a.68.68,0,0,0-.73-.75.56.56,0,0,0-.46.2.88.88,0,0,0-.18.55H28.62a2.12,2.12,0,0,1,.56-1.54,2.12,2.12,0,0,1,1.55-.54A2.54,2.54,0,0,1,31.88,3a1.62,1.62,0,0,1,.73.71,2.36,2.36,0,0,1,.26,1.13V9.94H31.43Z"/><path class="cls-1" d="M35.15,9.81a1.67,1.67,0,0,1-.74-.7A2.12,2.12,0,0,1,34.15,8V4.86a2.34,2.34,0,0,1,.26-1.16A1.74,1.74,0,0,1,35.15,3a2.58,2.58,0,0,1,1.19-.25A2.71,2.71,0,0,1,37.53,3a1.73,1.73,0,0,1,.75.74,2.45,2.45,0,0,1,.26,1.16v.42H37.06V5a1,1,0,0,0-.18-.64.72.72,0,0,0-1,0,.89.89,0,0,0-.19.62v3a.75.75,0,0,0,.18.54.7.7,0,0,0,.53.19.65.65,0,0,0,.52-.2.81.81,0,0,0,.18-.57V7.57l1.49,0V8a2.17,2.17,0,0,1-.26,1.11,1.74,1.74,0,0,1-.76.71,2.72,2.72,0,0,1-1.19.24A2.87,2.87,0,0,1,35.15,9.81Z"/><path class="cls-1" d="M39.89,9.54A2.32,2.32,0,0,1,39.46,8,2.45,2.45,0,0,1,40,6.27a2.25,2.25,0,0,1,1.69-.6h.73l.09,1.25h-.77a.8.8,0,0,0-.67.29,1.27,1.27,0,0,0-.22.82.76.76,0,0,0,.17.55.65.65,0,0,0,.5.18.83.83,0,0,0,.64-.24,1,1,0,0,0,.22-.68l.13.62a2.24,2.24,0,0,1-.17.87,1.07,1.07,0,0,1-.47.53,1.47,1.47,0,0,1-.76.18A1.59,1.59,0,0,1,39.89,9.54ZM42.42,4.8a.78.78,0,0,0-.19-.55.73.73,0,0,0-.54-.2.58.58,0,0,0-.47.2.82.82,0,0,0-.17.55H39.61a2.11,2.11,0,0,1,.55-1.54,2.13,2.13,0,0,1,1.55-.54A2.58,2.58,0,0,1,42.87,3a1.67,1.67,0,0,1,.73.71,2.36,2.36,0,0,1,.25,1.13V9.94H42.42Z"/><path class="cls-1" d="M45.81,9.82a1.44,1.44,0,0,1-.5-.69A3,3,0,0,1,45.13,8V4.78a3.07,3.07,0,0,1,.18-1.11A1.54,1.54,0,0,1,45.82,3a1.36,1.36,0,0,1,1.67.1,2.22,2.22,0,0,1,.63.93l-.14,1a1.08,1.08,0,0,0-.08-.46.66.66,0,0,0-.23-.29.7.7,0,0,0-.37-.1.61.61,0,0,0-.5.23.93.93,0,0,0-.19.63V7.88a.82.82,0,0,0,.19.59.63.63,0,0,0,.5.21.7.7,0,0,0,.37-.09.61.61,0,0,0,.23-.29A1,1,0,0,0,48,7.85l.1,1a1.87,1.87,0,0,1-.57.91,1.44,1.44,0,0,1-1.7.08ZM48,0h1.51V9.94H48Z"/><path class="cls-1" d="M51.78,9.78A1.77,1.77,0,0,1,51,9a2.54,2.54,0,0,1-.27-1.23V5.12A3,3,0,0,1,51,3.82,1.85,1.85,0,0,1,51.76,3a2.24,2.24,0,0,1,1.16-.28A2.41,2.41,0,0,1,54.09,3a1.72,1.72,0,0,1,.74.77A2.64,2.64,0,0,1,55.09,5V7H51.91V5.78h1.74V5a1.12,1.12,0,0,0-.19-.68.66.66,0,0,0-.54-.24.61.61,0,0,0-.53.26,1.24,1.24,0,0,0-.18.72V7.82a.93.93,0,0,0,.19.63.74.74,0,0,0,.57.22.71.71,0,0,0,.52-.17A.66.66,0,0,0,53.68,8V7.87h1.43V8a2,2,0,0,1-.56,1.51A2.22,2.22,0,0,1,53,10,2.58,2.58,0,0,1,51.78,9.78Z"/><path class="cls-1" d="M56.39,2.84H57.9v7.1H56.39ZM59.32,5a1.05,1.05,0,0,0-.18-.67.74.74,0,0,0-1.06,0A1,1,0,0,0,57.9,5l-.14-1a2.09,2.09,0,0,1,.65-1,1.54,1.54,0,0,1,1.74-.13,1.2,1.2,0,0,1,.5.6,2.51,2.51,0,0,1,.17,1V9.94h-1.5Zm2.91,0a1.05,1.05,0,0,0-.17-.67.68.68,0,0,0-.54-.22.63.63,0,0,0-.53.23,1.1,1.1,0,0,0-.17.67l-.16-.94a2.07,2.07,0,0,1,.65-1,1.46,1.46,0,0,1,.95-.34,1.37,1.37,0,0,1,.8.22,1.29,1.29,0,0,1,.51.63,2.53,2.53,0,0,1,.18,1V9.94H62.23Z"/><path class="cls-1" d="M64.48,2.84h1.46L67.38,9l-.74,1.63Zm4.93,0-2,8.76a1.73,1.73,0,0,1-.36.73,1.65,1.65,0,0,1-.67.43,3.24,3.24,0,0,1-1,.14H65V11.44h.39a1,1,0,0,0,.63-.16.87.87,0,0,0,.3-.57L68,2.84Z"/></g></g></svg>