<?xml version="1.0" encoding="utf-8"?>
<!-- Generator: Adobe Illustrator 15.1.0, SVG Export Plug-In . SVG Version: 6.00 Build 0)  -->
<!DOCTYPE svg PUBLIC "-//W3C//DTD SVG 1.1//EN" "http://www.w3.org/Graphics/SVG/1.1/DTD/svg11.dtd">
<svg version="1.1" id="Layer_1" xmlns="http://www.w3.org/2000/svg" xmlns:xlink="http://www.w3.org/1999/xlink" x="0px" y="0px"
	 width="286px" height="166px" viewBox="0 0 286 166" enable-background="new 0 0 286 166" xml:space="preserve">
<g>
	<g>
		<path fill="#FFFFFF" d="M40.351,164.554c-0.141-0.457-1.459-3.712-1.813-4.149c-0.949,0.246-2.029,0.759-3.219,0.593
			c-1.194-0.165-2.304-0.692-3.334-1.585c-0.074-0.063-0.133-0.139-0.203-0.205l0,0c-0.836-0.798-1.428-1.799-1.939-2.703
			c-0.173-0.307-0.354-0.647-0.536-1.003c-0.02-0.04-0.041-0.079-0.061-0.118c-0.284-0.554-0.573-1.135-0.86-1.701
			c-0.02-0.037-0.037-0.074-0.056-0.11l0,0c-0.263-0.519-0.524-1.024-0.773-1.461c-2.207-3.871-5.761-6.902-10.725-6.479
			c-1.613,0.137-4.044,0.934-4.044,0.934s-0.322,1.712-0.196,2.17c1.019-0.253,2.215-0.286,3.588-0.099
			c5.304,0.723,6.563,6.371,8.866,10.269l0,0c-1.002,0.877-2.189,1.493-3.543,1.868c-1.015,0.282-2.118,0.438-3.331,0.438
			c-1.776,0-3.374-0.356-4.793-1.065c-1.421-0.71-2.619-1.719-3.596-3.029c-0.975-1.309-1.72-2.884-2.23-4.725
			c-0.511-1.844-0.765-3.896-0.765-6.159c0-2.131,0.244-4.062,0.732-5.793c0.488-1.73,1.22-3.204,2.198-4.427
			c0.976-1.222,2.164-2.174,3.562-2.862s3.028-1.032,4.894-1.032c1.686,0,3.217,0.356,4.593,1.065
			c1.375,0.709,2.552,1.698,3.528,2.963c0.976,1.266,1.73,2.762,2.263,4.493c0.533,1.729,0.8,3.595,0.8,5.593
			c0,0.455-0.016,0.894-0.034,1.33c0.614,0.784,1.192,1.635,1.72,2.563c0.425,0.747,0.855,1.604,1.27,2.434
			c0.354,0.703,0.718,1.432,1.024,1.975c0.174,0.308,0.369,0.65,0.574,0.97c0.163-0.39,0.33-0.773,0.472-1.185
			c0.821-2.372,1.232-5.067,1.232-8.087c0-2.93-0.422-5.513-1.266-7.757c-0.844-2.238-2.03-4.126-3.562-5.658
			c-1.531-1.531-3.362-2.697-5.493-3.495c-2.128-0.799-4.505-1.197-7.122-1.197c-2.53,0-4.872,0.421-7.024,1.265
			c-2.154,0.844-4.017,2.041-5.592,3.595c-1.574,1.554-2.807,3.451-3.694,5.692c-0.888,2.241-1.332,4.76-1.332,7.556
			c0,6.258,1.509,10.994,4.526,14.212c3.018,3.22,7.391,4.827,13.116,4.827c2.259,0,4.312-0.322,6.187-0.929
			c0.336-0.108,0.678-0.207,1.002-0.336c1.042-0.413,2.011-0.921,2.912-1.52C31.597,165.173,36.311,166.028,40.351,164.554z"/>
		<path fill="#FFFFFF" d="M83.613,129.12c0.044,0.224,0.067,0.422,0.067,0.599v0.399c0,0.491-0.023,0.989-0.067,1.498
			c-0.043,0.511-0.109,0.901-0.199,1.166c-0.622,0.09-1.32,0.167-2.097,0.233c-0.777,0.066-1.498,0.12-2.164,0.167v17.508
			c0,2.129-0.333,4.083-0.999,5.857c-0.667,1.777-1.632,3.307-2.895,4.595c-1.266,1.287-2.81,2.296-4.628,3.027
			c-1.819,0.732-3.883,1.1-6.192,1.1c-5.193,0-8.931-1.22-11.217-3.66c-2.285-2.442-3.429-6.037-3.429-10.785V133.38
			c-0.666-0.086-1.364-0.175-2.096-0.266c-0.731-0.089-1.41-0.222-2.031-0.398c-0.133-0.49-0.244-1.076-0.333-1.764
			c-0.088-0.688-0.131-1.3-0.131-1.832h16.243c0.088,0.444,0.098,1.032,0.034,1.765c-0.067,0.731-0.166,1.321-0.3,1.766
			c-0.799,0.132-1.697,0.242-2.696,0.331c-0.999,0.088-1.921,0.154-2.762,0.201v17.375c0,3.327,0.698,5.89,2.096,7.689
			c1.398,1.797,3.761,2.695,7.09,2.695c1.554,0,2.907-0.253,4.061-0.767c1.154-0.508,2.118-1.197,2.896-2.063
			c0.775-0.864,1.353-1.885,1.73-3.062c0.375-1.175,0.566-2.428,0.566-3.761v-18.106c-0.666-0.047-1.432-0.113-2.296-0.201
			c-0.865-0.089-1.589-0.177-2.165-0.266c-0.088-0.442-0.144-1.066-0.166-1.862c-0.023-0.801,0.01-1.377,0.101-1.733H83.613z"/>
		<path fill="#FFFFFF" d="M145.227,160.01c1.82,0,3.784-0.022,5.89-0.065c2.108-0.046,4.097-0.178,5.96-0.399
			c0.089-0.709,0.233-1.619,0.433-2.729c0.199-1.109,0.409-2.042,0.633-2.797c0.488-0.087,1.119-0.175,1.897-0.266
			c0.775-0.089,1.409-0.089,1.897,0v10.185h-27.828c0.045-0.398,0.155-0.942,0.334-1.631c0.176-0.688,0.376-1.207,0.598-1.563
			c0.533-0.311,1.198-0.589,1.998-0.832s1.552-0.432,2.263-0.567v-26.161c-0.755-0.047-1.555-0.113-2.396-0.201
			c-0.844-0.089-1.598-0.177-2.264-0.266c-0.089-0.442-0.145-1.066-0.167-1.862c-0.022-0.801,0.011-1.377,0.1-1.733h17.044
			c0.043,0.356,0.043,0.933,0,1.733c-0.045,0.796-0.111,1.42-0.2,1.862c-0.977,0.089-2.008,0.177-3.096,0.266
			c-1.089,0.088-2.12,0.154-3.096,0.201V160.01z"/>
		<path fill="#FFFFFF" d="M186.203,128.124c2.616,0,4.993,0.397,7.121,1.196c2.131,0.798,3.962,1.964,5.493,3.496
			c1.532,1.529,2.718,3.417,3.562,5.657c0.842,2.243,1.265,4.827,1.265,7.757c0,3.018-0.41,5.716-1.232,8.087
			c-0.822,2.376-1.996,4.374-3.527,5.992c-1.531,1.622-3.363,2.852-5.493,3.696c-2.13,0.842-4.524,1.264-7.188,1.264
			c-5.727,0-10.099-1.607-13.117-4.827c-3.018-3.217-4.526-7.954-4.526-14.212c0-2.797,0.444-5.314,1.332-7.557
			c0.887-2.241,2.119-4.137,3.694-5.692c1.575-1.552,3.438-2.751,5.592-3.594C181.331,128.543,183.673,128.124,186.203,128.124z
			 M174.817,146.23c0,2.262,0.254,4.313,0.766,6.158c0.51,1.84,1.256,3.418,2.23,4.727c0.977,1.31,2.175,2.319,3.596,3.028
			c1.419,0.71,3.017,1.066,4.794,1.066c3.727,0,6.521-1.333,8.385-3.995c1.866-2.663,2.799-6.324,2.799-10.984
			c0-1.998-0.268-3.862-0.801-5.593c-0.532-1.73-1.288-3.229-2.263-4.492c-0.978-1.267-2.155-2.254-3.528-2.963
			c-1.375-0.709-2.905-1.067-4.592-1.067c-1.867,0-3.495,0.346-4.895,1.033c-1.397,0.689-2.585,1.641-3.562,2.862
			c-0.978,1.222-1.71,2.697-2.197,4.428C175.062,142.169,174.817,144.1,174.817,146.23z"/>
		<path fill="#FFFFFF" d="M269.084,147.028c0.177-0.443,0.4-0.932,0.668-1.465c0.263-0.532,0.53-1.043,0.798-1.531l4.259-7.322
			c0.268-0.487,0.633-1.055,1.1-1.697c0.469-0.644,0.92-1.165,1.364-1.565c-0.665-0.088-1.419-0.221-2.263-0.398
			c-0.845-0.177-1.51-0.377-1.998-0.601c-0.18-0.441-0.324-0.985-0.433-1.63c-0.11-0.643-0.167-1.208-0.167-1.698h13.115
			c0,0.49-0.088,1.1-0.265,1.832c-0.18,0.73-0.356,1.297-0.533,1.698c-0.355,0.132-0.832,0.265-1.431,0.398
			c-0.602,0.134-1.144,0.221-1.633,0.267l-10.852,17.707v8.522c0.886,0.089,1.92,0.233,3.096,0.433
			c1.176,0.198,2.099,0.41,2.764,0.632c0.088,0.444,0.167,0.99,0.233,1.631c0.066,0.645,0.054,1.211-0.032,1.697h-17.646
			c0.047-0.398,0.157-0.942,0.336-1.631c0.177-0.688,0.376-1.207,0.6-1.563c0.621-0.311,1.364-0.589,2.231-0.832
			c0.863-0.243,1.695-0.432,2.496-0.567v-8.122l-10.253-17.442c-1.377-0.352-2.598-0.842-3.662-1.463
			c-0.18-0.4-0.312-0.908-0.4-1.532c-0.091-0.621-0.133-1.174-0.133-1.664h15.646c0,0.578-0.056,1.166-0.166,1.765
			c-0.111,0.6-0.233,1.145-0.368,1.633c-0.53,0.221-1.274,0.41-2.229,0.564s-1.809,0.277-2.562,0.365
			c0.442,0.4,0.886,0.889,1.333,1.466c0.441,0.577,0.819,1.131,1.129,1.663l4.062,7.456c0.221,0.444,0.467,0.955,0.731,1.531
			c0.266,0.577,0.467,1.065,0.599,1.465H269.084z"/>
		<polygon fill="#FFFFFF" points="113.826,153.22 114.902,155.947 113.837,153.22 		"/>
		<path fill="#FFFFFF" d="M112.905,160.743c-0.222,0.356-0.422,0.866-0.599,1.53c-0.178,0.667-0.289,1.222-0.333,1.664h15.18
			c-0.046-0.532-0.156-1.107-0.333-1.729c-0.178-0.622-0.377-1.176-0.599-1.667c-0.444-0.133-0.988-0.253-1.631-0.366
			c-0.644-0.11-1.21-0.188-1.698-0.231l-13.115-31.954l-5.657,0.729l-12.916,30.559c-0.622,0.134-1.311,0.355-2.063,0.666
			c-0.756,0.312-1.377,0.645-1.863,0.998c-0.223,0.444-0.38,0.933-0.467,1.465c-0.089,0.533-0.156,1.044-0.201,1.53h14.315
			c0-0.532-0.057-1.107-0.167-1.729c-0.112-0.622-0.232-1.132-0.367-1.533c-0.532-0.221-1.243-0.42-2.129-0.598
			c-0.888-0.18-1.665-0.312-2.331-0.4c0.311-0.399,0.643-0.955,0.999-1.665c0.354-0.708,0.642-1.354,0.865-1.93l1.132-2.863h9.844
			l1.47-3.861h-9.783l4.26-10.852c0.133-0.31,0.289-0.697,0.467-1.165c0.176-0.466,0.343-0.943,0.499-1.432
			c0.156-0.486,0.3-0.953,0.432-1.397c0.135-0.444,0.222-0.798,0.268-1.065h0.465c0.089,0.621,0.277,1.441,0.565,2.463
			c0.289,1.023,0.544,1.844,0.766,2.464l3.082,8.335l2.566,6.511h0.011l1.065,2.728c0.222,0.624,0.533,1.291,0.932,1.998
			c0.4,0.712,0.799,1.291,1.199,1.732c-0.578,0.089-1.289,0.233-2.131,0.433C114.06,160.31,113.393,160.521,112.905,160.743z"/>
		<path fill="#FFFFFF" d="M236.862,160.477c-1.154,0.179-2.286,0.301-3.396,0.365c-1.109,0.067-2.175,0.101-3.195,0.101
			c-3.55,0-6.412-1.209-8.587-3.628c-2.177-2.417-3.265-6.135-3.265-11.149c0-2.441,0.322-4.562,0.968-6.358
			c0.641-1.798,1.541-3.273,2.695-4.427c1.153-1.154,2.518-2.021,4.094-2.598c1.573-0.578,3.316-0.863,5.226-0.863
			c1.154,0,2.231,0.131,3.23,0.397c0.999,0.268,2.006,0.665,3.029,1.2v4.198h4.821c0.103-0.422,0.193-0.877,0.272-1.372
			c0.154-0.998,0.232-2.008,0.232-3.027c0-0.356-0.015-0.756-0.036-1.198c-0.022-0.443-0.076-0.845-0.165-1.199
			c-1.51-0.887-3.195-1.574-5.059-2.062c-1.863-0.489-3.928-0.731-6.193-0.731c-2.928,0-5.604,0.476-8.021,1.431
			c-2.418,0.952-4.482,2.285-6.19,3.992c-1.709,1.71-3.042,3.74-3.994,6.094c-0.957,2.353-1.431,4.948-1.431,7.786
			c0,2.622,0.388,5.018,1.163,7.193c0.776,2.173,1.876,4.049,3.294,5.626c1.422,1.575,3.14,2.806,5.16,3.691
			c2.021,0.888,4.273,1.333,6.758,1.333c1.374,0,2.751-0.079,4.129-0.234c1.374-0.157,2.697-0.344,3.961-0.565
			c1.265-0.223,2.418-0.478,3.461-0.765c1.044-0.29,1.939-0.567,2.698-0.832v-10.211l-5.66,1.781V160.477z"/>
		<path fill="#FFFFFF" d="M232.321,146.428l-1.355,3.56c2.379,0.315,10.314,1.237,14.328,0.17c0.255-0.104,0.508-0.212,0.756-0.332
			c0.177-0.399,0.363-0.942,0.566-1.63c0.199-0.688,0.319-1.277,0.366-1.768H232.321z"/>
	</g>
	<path fill="#FFFFFF" d="M186.623,34.775c-4.883-19.533-22.572-34.046-43.595-34.046s-38.712,14.513-43.594,34.046
		c-6.152,7.688-9.846,17.429-9.846,28.02c0,24.776,20.159,44.936,44.938,44.936c2.906,0,5.748-0.29,8.501-0.818
		c2.754,0.528,5.596,0.818,8.502,0.818c24.777,0,44.936-20.159,44.936-44.936C196.466,52.204,192.775,42.464,186.623,34.775z
		 M185.892,45.665c0,8.547-2.523,16.511-6.853,23.204c0.271-1.988,0.423-4.014,0.423-6.074c0-19.94-13.061-36.879-31.071-42.736
		c1.037-0.076,2.083-0.129,3.14-0.129c13.361,0,25.311,6.148,33.178,15.76C185.474,38.894,185.892,42.229,185.892,45.665z
		 M156.084,47.757c-0.668-2.17-1.61-4.044-2.833-5.626c-1.225-1.587-2.7-2.824-4.419-3.713c-1.726-0.887-3.638-1.335-5.749-1.335
		c-2.335,0-4.379,0.432-6.129,1.294c-1.749,0.863-3.237,2.057-4.459,3.584c-1.226,1.533-2.145,3.38-2.755,5.546
		c-0.61,2.167-0.915,4.588-0.915,7.255c0,2.834,0.319,5.403,0.958,7.714c0.638,2.304,1.572,4.281,2.794,5.918
		c1.224,1.642,2.722,2.905,4.504,3.793c1.776,0.89,3.777,1.335,6.002,1.335c1.518,0,2.899-0.193,4.166-0.548
		c1.696-0.47,3.184-1.24,4.438-2.339c-2.882-4.882-4.463-11.958-11.099-12.862c-1.719-0.235-3.218-0.193-4.496,0.124
		c-0.157-0.574,0.25-2.719,0.25-2.719s3.044-0.997,5.064-1.169c6.21-0.53,10.664,3.269,13.427,8.116
		c0.31,0.546,0.639,1.179,0.97,1.83c0.022,0.047,0.042,0.092,0.068,0.136c0.356,0.714,0.722,1.439,1.078,2.13
		c0.024,0.052,0.049,0.101,0.076,0.151c0.23,0.443,0.454,0.871,0.667,1.255c0.644,1.135,1.385,2.385,2.431,3.387
		c0.091,0.082,0.162,0.177,0.255,0.257c1.289,1.117,2.681,1.777,4.178,1.983c1.487,0.208,2.843-0.433,4.031-0.742
		c0.443,0.549,2.094,4.625,2.271,5.197c-5.06,1.847-10.963,0.775-15.128-2.59c-1.13,0.752-2.345,1.387-3.648,1.904
		c-0.404,0.16-0.834,0.286-1.257,0.42c-2.344,0.761-4.912,1.163-7.742,1.163c-7.17,0-12.648-2.013-16.426-6.046
		c-3.78-4.028-5.67-9.961-5.67-17.799c0-3.502,0.556-6.658,1.666-9.465c1.112-2.805,2.656-5.183,4.628-7.129
		c1.973-1.945,4.306-3.446,7.006-4.502c2.694-1.056,5.628-1.584,8.796-1.584c3.277,0,6.248,0.499,8.916,1.499
		c2.668,1.001,4.961,2.461,6.878,4.379c1.922,1.917,3.404,4.282,4.46,7.086c1.056,2.811,1.586,6.047,1.586,9.716
		c0,3.78-0.516,7.157-1.542,10.128c-0.179,0.516-0.385,0.996-0.591,1.482c-0.256-0.396-0.501-0.827-0.717-1.212
		c-0.386-0.68-0.843-1.595-1.284-2.475c-0.521-1.039-1.058-2.111-1.591-3.048c-0.662-1.162-1.387-2.228-2.152-3.212
		c0.02-0.545,0.042-1.094,0.042-1.664C157.088,52.258,156.751,49.924,156.084,47.757z M143.028,2.801
		c18.517,0,34.326,11.804,40.307,28.28c-8.141-8.163-19.392-13.223-31.805-13.223c-2.906,0-5.748,0.288-8.502,0.818
		c-2.754-0.53-5.595-0.818-8.501-0.818c-12.413,0-23.664,5.06-31.805,13.223C108.703,14.604,124.512,2.801,143.028,2.801z
		 M101.349,35.689c7.867-9.611,19.816-15.76,33.178-15.76c1.054,0,2.1,0.053,3.14,0.129c-18.014,5.857-31.071,22.796-31.071,42.736
		c0,2.061,0.151,4.086,0.422,6.074c-4.329-6.693-6.852-14.657-6.852-23.204C100.166,42.229,100.583,38.894,101.349,35.689z
		 M134.527,105.659c-23.637,0-42.867-19.23-42.867-42.864c0-8.547,2.525-16.51,6.854-23.205c-0.269,1.988-0.42,4.014-0.42,6.075
		c0,10.592,3.691,20.33,9.842,28.02c3.759,15.037,15.11,27.092,29.731,31.847C136.627,105.604,135.581,105.659,134.527,105.659z
		 M111.224,77.378c8.141,8.163,19.392,13.222,31.805,13.222s23.664-5.059,31.805-13.222c-5.042,13.887-17.064,24.451-31.805,27.431
		C128.286,101.829,116.266,91.265,111.224,77.378z M151.53,105.659c-1.057,0-2.103-0.055-3.14-0.128
		c14.618-4.755,25.972-16.81,29.73-31.847c6.151-7.689,9.842-17.428,9.842-28.02c0-2.062-0.15-4.087-0.421-6.075
		c4.329,6.695,6.853,14.658,6.853,23.205C194.395,86.429,175.167,105.659,151.53,105.659z"/>
</g>
</svg>
