<svg xmlns="http://www.w3.org/2000/svg" viewBox="0 0 69.33 12.9"><defs><style>.cls-1{fill:#fff;}</style></defs><g id="Layer_2" data-name="Layer 2"><g id="Layer_1-2" data-name="Layer 1"><path class="cls-1" d="M0,0H1V9.94H0ZM.6,7.72,3.71,2.84H4.8L.65,9ZM2.18,6.19l.55-.93L5.08,9.94H4Z"/><path class="cls-1" d="M6,9.55a2.12,2.12,0,0,1-.47-1.5,2.51,2.51,0,0,1,.55-1.78,2.1,2.1,0,0,1,1.64-.6H9l.09.71H7.72a1.13,1.13,0,0,0-1,.42,2,2,0,0,0-.32,1.25A1.32,1.32,0,0,0,6.72,9a1.16,1.16,0,0,0,.88.32,1.31,1.31,0,0,0,1-.35,1.5,1.5,0,0,0,.32-1l.15.59a1.84,1.84,0,0,1-.2.85,1.17,1.17,0,0,1-.55.5,2.15,2.15,0,0,1-.93.17A1.81,1.81,0,0,1,6,9.55ZM8.91,4.74a1.17,1.17,0,0,0-.31-.88,1.25,1.25,0,0,0-.9-.32,1,1,0,0,0-.8.32,1.24,1.24,0,0,0-.28.88h-1a2,2,0,0,1,.54-1.49,2.1,2.1,0,0,1,1.52-.53A2.52,2.52,0,0,1,8.87,3a1.63,1.63,0,0,1,.71.69,2.2,2.2,0,0,1,.25,1.09v5.2H8.91Z"/><path class="cls-1" d="M10.79,2.84h3.27v.85H10.79Zm.75-1A1.94,1.94,0,0,1,12,.49,1.7,1.7,0,0,1,13.31,0h.75V.92h-.72a.73.73,0,0,0-.6.25,1,1,0,0,0-.22.7V9.94h-1Z"/><path class="cls-1" d="M14.88,0h1V9.94h-1Zm.6,7.72,3.11-4.88h1.09L15.53,9Zm1.58-1.53.56-.93L20,9.94H18.85Z"/><path class="cls-1" d="M20.87,9.55a2.12,2.12,0,0,1-.46-1.5A2.56,2.56,0,0,1,21,6.27a2.1,2.1,0,0,1,1.64-.6h1.27l.09.71H22.6a1.14,1.14,0,0,0-1,.42,2,2,0,0,0-.32,1.25A1.37,1.37,0,0,0,21.6,9a1.16,1.16,0,0,0,.88.32,1.31,1.31,0,0,0,1-.35,1.46,1.46,0,0,0,.33-1l.14.59a1.72,1.72,0,0,1-.2.85,1.17,1.17,0,0,1-.55.5,2.15,2.15,0,0,1-.93.17A1.83,1.83,0,0,1,20.87,9.55ZM23.8,4.74a1.17,1.17,0,0,0-.32-.88,1.22,1.22,0,0,0-.9-.32,1,1,0,0,0-.8.32,1.24,1.24,0,0,0-.28.88h-.95a2,2,0,0,1,.54-1.49,2.1,2.1,0,0,1,1.52-.53A2.49,2.49,0,0,1,23.75,3a1.71,1.71,0,0,1,.72.69,2.31,2.31,0,0,1,.24,1.09v5.2H23.8Z"/><path class="cls-1" d="M26.09,8.82h1.12V9.94H26.09Z"/><path class="cls-1" d="M28.94,9.55a2.12,2.12,0,0,1-.46-1.5A2.56,2.56,0,0,1,29,6.27a2.11,2.11,0,0,1,1.65-.6h1.26l.1.71H30.67a1.15,1.15,0,0,0-1,.42,2.07,2.07,0,0,0-.32,1.25,1.37,1.37,0,0,0,.29.95,1.16,1.16,0,0,0,.89.32,1.3,1.3,0,0,0,1-.35,1.46,1.46,0,0,0,.33-1l.14.59a1.84,1.84,0,0,1-.19.85,1.19,1.19,0,0,1-.56.5,2.1,2.1,0,0,1-.92.17A1.84,1.84,0,0,1,28.94,9.55Zm2.93-4.81a1.17,1.17,0,0,0-.32-.88,1.22,1.22,0,0,0-.9-.32,1,1,0,0,0-.79.32,1.24,1.24,0,0,0-.29.88h-.95a2,2,0,0,1,.54-1.49,2.11,2.11,0,0,1,1.53-.53A2.45,2.45,0,0,1,31.82,3a1.6,1.6,0,0,1,.72.69,2.31,2.31,0,0,1,.25,1.09v5.2h-.92Z"/><path class="cls-1" d="M35.14,9.79a1.64,1.64,0,0,1-.73-.72,2.41,2.41,0,0,1-.26-1.15V5a2.59,2.59,0,0,1,.26-1.2A1.7,1.7,0,0,1,35.14,3a2.45,2.45,0,0,1,1.16-.26A2.52,2.52,0,0,1,37.47,3a1.78,1.78,0,0,1,.74.77A2.77,2.77,0,0,1,38.46,5V5h-.94V5a1.38,1.38,0,0,0-.31-1,1.29,1.29,0,0,0-1.76,0,1.38,1.38,0,0,0-.31,1v3a1.24,1.24,0,0,0,.3.89,1.37,1.37,0,0,0,1.77,0,1.26,1.26,0,0,0,.31-.91V7.83h.95v.06a2.45,2.45,0,0,1-.25,1.16,1.68,1.68,0,0,1-.75.74A2.5,2.5,0,0,1,36.3,10,2.43,2.43,0,0,1,35.14,9.79Z"/><path class="cls-1" d="M39.93,9.55a2.12,2.12,0,0,1-.47-1.5A2.56,2.56,0,0,1,40,6.27a2.1,2.1,0,0,1,1.64-.6h1.27l.09.71H41.66a1.14,1.14,0,0,0-1,.42,2,2,0,0,0-.32,1.25,1.32,1.32,0,0,0,.29.95,1.16,1.16,0,0,0,.88.32,1.31,1.31,0,0,0,1-.35,1.46,1.46,0,0,0,.32-1l.15.59a1.84,1.84,0,0,1-.2.85,1.17,1.17,0,0,1-.55.5,2.15,2.15,0,0,1-.93.17A1.81,1.81,0,0,1,39.93,9.55Zm2.92-4.81a1.17,1.17,0,0,0-.31-.88,1.25,1.25,0,0,0-.9-.32,1,1,0,0,0-.8.32,1.24,1.24,0,0,0-.28.88h-1a2,2,0,0,1,.54-1.49,2.1,2.1,0,0,1,1.52-.53A2.52,2.52,0,0,1,42.81,3a1.63,1.63,0,0,1,.71.69,2.2,2.2,0,0,1,.25,1.09v5.2h-.92Z"/><path class="cls-1" d="M46,9.81a1.57,1.57,0,0,1-.6-.73,2.85,2.85,0,0,1-.21-1.15v-3a3,3,0,0,1,.21-1.19A1.65,1.65,0,0,1,46,3a1.74,1.74,0,0,1,1-.26,1.55,1.55,0,0,1,1,.33,2.37,2.37,0,0,1,.7.92l-.14,1a2,2,0,0,0-.13-.73,1,1,0,0,0-.4-.47,1.21,1.21,0,0,0-.62-.16,1.05,1.05,0,0,0-.85.36,1.54,1.54,0,0,0-.3,1v3a1.38,1.38,0,0,0,.3.94,1.1,1.1,0,0,0,.85.33A1.12,1.12,0,0,0,47.89,9a.93.93,0,0,0,.4-.45,1.91,1.91,0,0,0,.13-.71l.09,1a1.81,1.81,0,0,1-.62.91,1.6,1.6,0,0,1-1,.32A1.74,1.74,0,0,1,46,9.81ZM48.42,0h1V9.94h-1Z"/><path class="cls-1" d="M51.77,9.77A1.82,1.82,0,0,1,51,9a2.92,2.92,0,0,1-.26-1.28V5.22A3.22,3.22,0,0,1,51,3.87,2,2,0,0,1,51.74,3a2.17,2.17,0,0,1,1.14-.29A2.3,2.3,0,0,1,54,3a1.68,1.68,0,0,1,.72.79A2.82,2.82,0,0,1,55,5V6.79H51.37V5.88H54V5.06a1.64,1.64,0,0,0-.3-1,1,1,0,0,0-.84-.37,1,1,0,0,0-.83.39,1.8,1.8,0,0,0-.29,1.12V7.71a1.61,1.61,0,0,0,.3,1,1.08,1.08,0,0,0,.87.38,1.1,1.1,0,0,0,.82-.3A1.13,1.13,0,0,0,54,8V8h1V8a2,2,0,0,1-.54,1.51,2.16,2.16,0,0,1-1.55.53A2.34,2.34,0,0,1,51.77,9.77Z"/><path class="cls-1" d="M56.39,2.84h1v7.1h-1Zm3.14,2.09a1.61,1.61,0,0,0-.24-1,.83.83,0,0,0-.73-.32,1.1,1.1,0,0,0-.89.35,1.66,1.66,0,0,0-.3,1.08l-.14-1a2.25,2.25,0,0,1,.67-1,1.6,1.6,0,0,1,1-.33,1.58,1.58,0,0,1,.89.24,1.5,1.5,0,0,1,.53.74,3.63,3.63,0,0,1,.18,1.23v5h-1Zm3.15,0a1.42,1.42,0,0,0-.29-1,1.14,1.14,0,0,0-.89-.32.85.85,0,0,0-.74.35,2,2,0,0,0-.24,1.08l-.28-.89a2,2,0,0,1,.61-1.09,1.47,1.47,0,0,1,1-.37,2,2,0,0,1,1,.24,1.55,1.55,0,0,1,.6.74,3.38,3.38,0,0,1,.19,1.23v5h-1Z"/><path class="cls-1" d="M64.48,2.84h1L67.13,8.9l-.36,1.51Zm4.85,0L67,11.6a1.87,1.87,0,0,1-.37.73,1.69,1.69,0,0,1-.68.43,3.15,3.15,0,0,1-1,.14h-.08V12H65a1.33,1.33,0,0,0,.89-.27,1.74,1.74,0,0,0,.47-.84l2-8Z"/></g></g></svg>