<svg xmlns="http://www.w3.org/2000/svg" viewBox="0 0 69.48 12.9"><defs><style>.cls-1{fill:#fff;}</style></defs><g id="Layer_2" data-name="Layer 2"><g id="Layer_1-2" data-name="Layer 1"><path class="cls-1" d="M0,0H1.67V9.94H0ZM1.1,6.82l2.13-4H5L1.17,9.17ZM2,6.37l1-1.13,2.14,4.7H3.44Z"/><path class="cls-1" d="M5.94,9.52A2.34,2.34,0,0,1,5.52,8a2.35,2.35,0,0,1,.6-1.73,2.4,2.4,0,0,1,1.75-.61h.52L8.49,7H8a.81.81,0,0,0-.63.25A1.14,1.14,0,0,0,7.12,8a.77.77,0,0,0,.13.47.5.5,0,0,0,.39.15.73.73,0,0,0,.54-.19.76.76,0,0,0,.19-.56l.12.59a2,2,0,0,1-.17.86,1.18,1.18,0,0,1-.45.53,1.37,1.37,0,0,1-.72.18A1.45,1.45,0,0,1,5.94,9.52ZM8.37,4.85a.52.52,0,0,0-.58-.58.47.47,0,0,0-.37.15.63.63,0,0,0-.13.43H5.67a2.11,2.11,0,0,1,.56-1.57,2.16,2.16,0,0,1,1.58-.56A2.47,2.47,0,0,1,9,3a1.68,1.68,0,0,1,.74.73A2.3,2.3,0,0,1,10,4.85V9.94H8.37Z"/><path class="cls-1" d="M10.79,2.84h3.42V4.28H10.79Zm.64-1A2,2,0,0,1,11.88.46,1.9,1.9,0,0,1,13.28,0h.93V1.59h-.67a.38.38,0,0,0-.32.13.55.55,0,0,0-.1.34V9.94H11.43Z"/><path class="cls-1" d="M14.88,0h1.68V9.94H14.88ZM16,6.82l2.14-4h1.71L16.05,9.17Zm.94-.45,1-1.13,2.14,4.7H18.32Z"/><path class="cls-1" d="M20.82,9.52A2.34,2.34,0,0,1,20.41,8,2.35,2.35,0,0,1,21,6.28a2.36,2.36,0,0,1,1.74-.61h.53L23.37,7h-.53a.79.79,0,0,0-.62.25A1.15,1.15,0,0,0,22,8a.77.77,0,0,0,.13.47.5.5,0,0,0,.39.15.73.73,0,0,0,.54-.19.77.77,0,0,0,.2-.56l.11.59a2,2,0,0,1-.17.86,1.12,1.12,0,0,1-.45.53A1.37,1.37,0,0,1,22,10,1.45,1.45,0,0,1,20.82,9.52Zm2.44-4.67a.58.58,0,0,0-.15-.43.6.6,0,0,0-.44-.15.48.48,0,0,0-.37.15.63.63,0,0,0-.13.43H20.55a2.15,2.15,0,0,1,.56-1.57,2.19,2.19,0,0,1,1.59-.56A2.45,2.45,0,0,1,23.86,3a1.71,1.71,0,0,1,.75.73,2.41,2.41,0,0,1,.25,1.15V9.94h-1.6Z"/><path class="cls-1" d="M25.87,8.24h1.7v1.7h-1.7Z"/><path class="cls-1" d="M28.9,9.52A2.34,2.34,0,0,1,28.48,8a2.35,2.35,0,0,1,.6-1.73,2.36,2.36,0,0,1,1.74-.61h.53L31.45,7h-.54a.79.79,0,0,0-.62.25,1.14,1.14,0,0,0-.21.74.71.71,0,0,0,.13.47.46.46,0,0,0,.38.15.73.73,0,0,0,.54-.19.77.77,0,0,0,.2-.56l.12.59a2.39,2.39,0,0,1-.17.86,1.2,1.2,0,0,1-.46.53,1.31,1.31,0,0,1-.71.18A1.44,1.44,0,0,1,28.9,9.52Zm2.43-4.67a.52.52,0,0,0-.58-.58.45.45,0,0,0-.37.15.63.63,0,0,0-.14.43H28.62a2.12,2.12,0,0,1,.57-1.57,2.14,2.14,0,0,1,1.58-.56A2.52,2.52,0,0,1,31.94,3a1.74,1.74,0,0,1,.74.73,2.41,2.41,0,0,1,.26,1.15V9.94H31.33Z"/><path class="cls-1" d="M35.16,9.81a1.66,1.66,0,0,1-.76-.67,2,2,0,0,1-.26-1.05V4.78a2.28,2.28,0,0,1,.26-1.11A1.74,1.74,0,0,1,35.16,3a3.17,3.17,0,0,1,2.42,0,1.76,1.76,0,0,1,.77.71,2.29,2.29,0,0,1,.26,1.12v.62H36.94V4.94a.89.89,0,0,0-.14-.52.56.56,0,0,0-.82,0,.82.82,0,0,0-.14.5V8a.61.61,0,0,0,.14.42.54.54,0,0,0,.41.15.48.48,0,0,0,.4-.16.61.61,0,0,0,.14-.45V7.48l1.69,0v.56a2.15,2.15,0,0,1-.26,1.07,1.79,1.79,0,0,1-.78.68,2.93,2.93,0,0,1-1.21.23A2.81,2.81,0,0,1,35.16,9.81Z"/><path class="cls-1" d="M39.88,9.52A2.34,2.34,0,0,1,39.46,8a2.31,2.31,0,0,1,.61-1.73,2.36,2.36,0,0,1,1.74-.61h.52L42.43,7H41.9a.78.78,0,0,0-.62.25,1.09,1.09,0,0,0-.22.74.77.77,0,0,0,.13.47.5.5,0,0,0,.39.15.73.73,0,0,0,.54-.19.76.76,0,0,0,.19-.56l.12.59a2,2,0,0,1-.17.86,1.18,1.18,0,0,1-.45.53,1.37,1.37,0,0,1-.72.18A1.45,1.45,0,0,1,39.88,9.52Zm2.43-4.67a.52.52,0,0,0-.58-.58.47.47,0,0,0-.37.15.63.63,0,0,0-.13.43H39.61a2.15,2.15,0,0,1,.56-1.57,2.16,2.16,0,0,1,1.58-.56A2.47,2.47,0,0,1,42.92,3a1.68,1.68,0,0,1,.74.73,2.3,2.3,0,0,1,.26,1.15V9.94H42.31Z"/><path class="cls-1" d="M45.76,9.83a1.44,1.44,0,0,1-.47-.66,2.94,2.94,0,0,1-.17-1V4.65a2.9,2.9,0,0,1,.17-1A1.39,1.39,0,0,1,45.77,3a1.25,1.25,0,0,1,.75-.22,1.29,1.29,0,0,1,.86.34A2.24,2.24,0,0,1,48,4l-.14.89a.91.91,0,0,0-.06-.35.49.49,0,0,0-.18-.22.54.54,0,0,0-.29-.07.52.52,0,0,0-.41.17.77.77,0,0,0-.14.49v3a.73.73,0,0,0,.14.47.51.51,0,0,0,.41.16.54.54,0,0,0,.29-.07.44.44,0,0,0,.18-.22.86.86,0,0,0,.06-.34l.09,1a1.86,1.86,0,0,1-.55.9,1.28,1.28,0,0,1-.88.33A1.27,1.27,0,0,1,45.76,9.83ZM47.86,0h1.69V9.94H47.86Z"/><path class="cls-1" d="M51.79,9.79A1.8,1.8,0,0,1,51,9a2.54,2.54,0,0,1-.26-1.18V5A2.68,2.68,0,0,1,51,3.78,1.74,1.74,0,0,1,51.77,3a2.35,2.35,0,0,1,1.17-.27,2.59,2.59,0,0,1,1.2.26,1.77,1.77,0,0,1,.76.77A2.6,2.6,0,0,1,55.17,5V7H52.12V5.75h1.41V4.9a.74.74,0,0,0-.16-.49.52.52,0,0,0-.43-.18.47.47,0,0,0-.4.19A.88.88,0,0,0,52.4,5v3a.65.65,0,0,0,.16.45.6.6,0,0,0,.44.15.58.58,0,0,0,.41-.13A.43.43,0,0,0,53.55,8V7.78h1.64V8a2,2,0,0,1-.58,1.52A2.3,2.3,0,0,1,53,10,2.67,2.67,0,0,1,51.79,9.79Z"/><path class="cls-1" d="M56.39,2.84h1.72v7.1H56.39Zm2.86,2.09a.78.78,0,0,0-.15-.51.52.52,0,0,0-.43-.17.5.5,0,0,0-.42.17.73.73,0,0,0-.14.5L58,4a2.27,2.27,0,0,1,.64-1,1.43,1.43,0,0,1,.94-.34,1.54,1.54,0,0,1,.77.19,1.26,1.26,0,0,1,.48.56,2.24,2.24,0,0,1,.17.91V9.94H59.25Zm2.85,0A.78.78,0,0,0,62,4.42a.48.48,0,0,0-.41-.17.54.54,0,0,0-.44.17.78.78,0,0,0-.14.5L60.83,4a2.15,2.15,0,0,1,.65-1,1.47,1.47,0,0,1,.93-.33,1.32,1.32,0,0,1,.75.21,1.4,1.4,0,0,1,.49.62,2.56,2.56,0,0,1,.16,1V9.94H62.1Z"/><path class="cls-1" d="M64.48,2.84h1.6L67.43,9l-.82,1.73Zm5,0L67.57,11.6a1.61,1.61,0,0,1-.35.73,1.59,1.59,0,0,1-.67.43,3.12,3.12,0,0,1-1,.14H65V11.22h.57a.88.88,0,0,0,.52-.13.81.81,0,0,0,.25-.51l1.51-7.74Z"/></g></g></svg>